<mxfile host="65bd71144e">
    <diagram id="Ht1M8jgEwFfnCIfOTk4-" name="Page-1">
        <mxGraphModel dx="2147" dy="364" grid="1" gridSize="10" guides="1" tooltips="1" connect="1" arrows="1" fold="1" page="1" pageScale="1" pageWidth="1169" pageHeight="827" math="0" shadow="0">
            <root>
                <mxCell id="0"/>
                <mxCell id="1" parent="0"/>
                <mxCell id="UEzPUAAOIrF-is8g5C7q-74" value="AWS Cloud" style="points=[[0,0],[0.25,0],[0.5,0],[0.75,0],[1,0],[1,0.25],[1,0.5],[1,0.75],[1,1],[0.75,1],[0.5,1],[0.25,1],[0,1],[0,0.75],[0,0.5],[0,0.25]];outlineConnect=0;gradientColor=none;html=1;whiteSpace=wrap;fontSize=12;fontStyle=0;shape=mxgraph.aws4.group;grIcon=mxgraph.aws4.group_aws_cloud_alt;strokeColor=#232F3E;fillColor=none;verticalAlign=top;align=left;spacingLeft=30;fontColor=#232F3E;dashed=0;labelBackgroundColor=#ffffff;container=1;pointerEvents=0;collapsible=0;recursiveResize=0;" parent="1" vertex="1">
                    <mxGeometry x="70" y="100" width="860" height="690" as="geometry"/>
                </mxCell>
                <mxCell id="1NWmoB_3eEeEF4lO7WTZ-13" value="Public subnet" style="points=[[0,0],[0.25,0],[0.5,0],[0.75,0],[1,0],[1,0.25],[1,0.5],[1,0.75],[1,1],[0.75,1],[0.5,1],[0.25,1],[0,1],[0,0.75],[0,0.5],[0,0.25]];outlineConnect=0;gradientColor=none;html=1;whiteSpace=wrap;fontSize=12;fontStyle=0;container=1;pointerEvents=0;collapsible=0;recursiveResize=0;shape=mxgraph.aws4.group;grIcon=mxgraph.aws4.group_security_group;grStroke=0;strokeColor=#7AA116;fillColor=#F2F6E8;verticalAlign=top;align=left;spacingLeft=30;fontColor=#248814;dashed=0;" parent="UEzPUAAOIrF-is8g5C7q-74" vertex="1">
                    <mxGeometry x="55.5" y="68" width="744.5" height="572" as="geometry"/>
                </mxCell>
                <mxCell id="1NWmoB_3eEeEF4lO7WTZ-1" value="VPC" style="sketch=0;outlineConnect=0;gradientColor=none;html=1;whiteSpace=wrap;fontSize=12;fontStyle=0;shape=mxgraph.aws4.group;grIcon=mxgraph.aws4.group_vpc;strokeColor=#879196;fillColor=none;verticalAlign=top;align=left;spacingLeft=30;fontColor=#879196;dashed=0;" parent="1NWmoB_3eEeEF4lO7WTZ-13" vertex="1">
                    <mxGeometry x="-30" y="-30" width="810" height="630" as="geometry"/>
                </mxCell>
                <mxCell id="1NWmoB_3eEeEF4lO7WTZ-16" value="" style="edgeStyle=orthogonalEdgeStyle;rounded=0;orthogonalLoop=1;jettySize=auto;html=1;" parent="1NWmoB_3eEeEF4lO7WTZ-13" edge="1">
                    <mxGeometry relative="1" as="geometry">
                        <mxPoint x="402.5" y="246" as="sourcePoint"/>
                        <mxPoint x="264.5" y="330" as="targetPoint"/>
                    </mxGeometry>
                </mxCell>
                <mxCell id="3" value="" style="edgeStyle=none;html=1;" edge="1" parent="1NWmoB_3eEeEF4lO7WTZ-13">
                    <mxGeometry relative="1" as="geometry">
                        <mxPoint x="441.5" y="285" as="sourcePoint"/>
                        <mxPoint x="441.5" y="365" as="targetPoint"/>
                    </mxGeometry>
                </mxCell>
                <mxCell id="1NWmoB_3eEeEF4lO7WTZ-31" value="" style="edgeStyle=orthogonalEdgeStyle;rounded=0;orthogonalLoop=1;jettySize=auto;html=1;" parent="1NWmoB_3eEeEF4lO7WTZ-13" edge="1">
                    <mxGeometry relative="1" as="geometry">
                        <mxPoint x="616.5" y="120" as="sourcePoint"/>
                        <mxPoint x="616.5" y="382.0239361702128" as="targetPoint"/>
                    </mxGeometry>
                </mxCell>
                <mxCell id="1NWmoB_3eEeEF4lO7WTZ-33" value="" style="edgeStyle=orthogonalEdgeStyle;rounded=0;orthogonalLoop=1;jettySize=auto;html=1;" parent="1NWmoB_3eEeEF4lO7WTZ-13" edge="1">
                    <mxGeometry relative="1" as="geometry">
                        <Array as="points">
                            <mxPoint x="525" y="82"/>
                            <mxPoint x="525" y="82"/>
                        </Array>
                        <mxPoint x="577.5" y="82" as="sourcePoint"/>
                        <mxPoint x="481.5" y="82" as="targetPoint"/>
                    </mxGeometry>
                </mxCell>
                <mxCell id="1NWmoB_3eEeEF4lO7WTZ-23" value="" style="edgeStyle=orthogonalEdgeStyle;rounded=0;orthogonalLoop=1;jettySize=auto;html=1;" parent="1NWmoB_3eEeEF4lO7WTZ-13" edge="1">
                    <mxGeometry relative="1" as="geometry">
                        <mxPoint x="162.25" y="120" as="sourcePoint"/>
                        <mxPoint x="162.25" y="292" as="targetPoint"/>
                    </mxGeometry>
                </mxCell>
                <mxCell id="1NWmoB_3eEeEF4lO7WTZ-27" value="" style="edgeStyle=orthogonalEdgeStyle;rounded=0;orthogonalLoop=1;jettySize=auto;html=1;" parent="1NWmoB_3eEeEF4lO7WTZ-13" edge="1">
                    <mxGeometry relative="1" as="geometry">
                        <mxPoint x="479.5" y="421" as="sourcePoint"/>
                        <mxPoint x="584.5" y="421" as="targetPoint"/>
                    </mxGeometry>
                </mxCell>
                <mxCell id="1NWmoB_3eEeEF4lO7WTZ-21" value="&lt;span style=&quot;text-wrap-mode: nowrap;&quot;&gt;SecGroup Port 80&amp;nbsp;&lt;/span&gt;&lt;br style=&quot;padding: 0px; margin: 0px; text-wrap-mode: nowrap;&quot;&gt;&lt;span style=&quot;text-wrap-mode: nowrap;&quot;&gt;from PrefixListId&lt;/span&gt;" style="text;html=1;align=center;verticalAlign=middle;whiteSpace=wrap;rounded=0;" parent="1NWmoB_3eEeEF4lO7WTZ-13" vertex="1">
                    <mxGeometry x="93.5" y="492" width="107.75" height="30" as="geometry"/>
                </mxCell>
                <mxCell id="1NWmoB_3eEeEF4lO7WTZ-36" value="" style="edgeStyle=orthogonalEdgeStyle;rounded=0;orthogonalLoop=1;jettySize=auto;html=1;" parent="1NWmoB_3eEeEF4lO7WTZ-13" edge="1">
                    <mxGeometry relative="1" as="geometry">
                        <mxPoint x="401.5" y="421" as="sourcePoint"/>
                        <mxPoint x="162.30000000000018" y="370" as="targetPoint"/>
                    </mxGeometry>
                </mxCell>
                <mxCell id="1NWmoB_3eEeEF4lO7WTZ-14" value="" style="sketch=0;pointerEvents=1;shadow=0;dashed=0;html=1;strokeColor=none;fillColor=#434445;aspect=fixed;labelPosition=center;verticalLabelPosition=bottom;verticalAlign=top;align=center;outlineConnect=0;shape=mxgraph.vvd.web_browser;" parent="1" vertex="1">
                    <mxGeometry x="-20" y="231.25" width="50" height="35.5" as="geometry"/>
                </mxCell>
                <mxCell id="1NWmoB_3eEeEF4lO7WTZ-15" value="" style="edgeStyle=orthogonalEdgeStyle;rounded=0;orthogonalLoop=1;jettySize=auto;html=1;" parent="1" source="1NWmoB_3eEeEF4lO7WTZ-14" edge="1">
                    <mxGeometry relative="1" as="geometry">
                        <mxPoint x="248.75" y="249" as="targetPoint"/>
                    </mxGeometry>
                </mxCell>
                <mxCell id="1NWmoB_3eEeEF4lO7WTZ-29" value="https access" style="edgeLabel;html=1;align=center;verticalAlign=middle;resizable=0;points=[];" parent="1NWmoB_3eEeEF4lO7WTZ-15" vertex="1" connectable="0">
                    <mxGeometry x="-0.3846" y="4" relative="1" as="geometry">
                        <mxPoint as="offset"/>
                    </mxGeometry>
                </mxCell>
            </root>
        </mxGraphModel>
    </diagram>
</mxfile>